<svg width="165" height="165" viewBox="0 0 165 165" fill="none" xmlns="http://www.w3.org/2000/svg">
<circle cx="82.5" cy="82.5" r="82.5" fill="#D9D9D9"/>
<path d="M95.5 105H77.3125V103.688C77.9375 103.688 78.4583 103.688 78.875 103.688C79.2917 103.646 79.625 103.604 79.875 103.562C80.1667 103.479 80.4167 103.417 80.625 103.375C80.8333 103.292 81.0417 103.188 81.25 103.062C81.5833 102.854 81.8333 102.604 82 102.312C82.2083 101.979 82.3125 101.646 82.3125 101.312C82.3125 100.146 81.8542 98.5208 80.9375 96.4375L77.9375 89.625H59.3125L56 97.9375C55.8333 98.3958 55.6875 98.875 55.5625 99.375C55.4792 99.8333 55.4375 100.292 55.4375 100.75C55.4375 101.708 55.8125 102.438 56.5625 102.938C57.3125 103.438 58.5625 103.688 60.3125 103.688V105H46.125V103.688C47 103.646 47.75 103.5 48.375 103.25C49 103 49.625 102.479 50.25 101.688C50.875 100.854 51.5417 99.6875 52.25 98.1875C53 96.6458 53.9375 94.5625 55.0625 91.9375L69.875 56.9375H71.25L89.0625 97.4375C89.6458 98.7708 90.1458 99.8333 90.5625 100.625C91.0208 101.417 91.4792 102.042 91.9375 102.5C92.3958 102.917 92.8958 103.208 93.4375 103.375C94.0208 103.542 94.7083 103.646 95.5 103.688V105ZM77 86.75L68.75 67.0625L60.5 86.75H77ZM117.312 82.625C116.521 79.4167 115.542 77.1458 114.375 75.8125C113.208 74.4792 111.604 73.8125 109.562 73.8125C107.896 73.8125 106.562 74.2708 105.562 75.1875C104.562 76.0625 104.062 77.2292 104.062 78.6875C104.062 80.7292 105.083 82.3542 107.125 83.5625L114.812 88.125C116.979 89.4167 118.521 90.7083 119.438 92C120.354 93.25 120.812 94.7708 120.812 96.5625C120.812 97.8125 120.542 99 120 100.125C119.458 101.25 118.729 102.229 117.812 103.062C116.938 103.854 115.896 104.5 114.688 105C113.479 105.458 112.188 105.688 110.812 105.688C110.062 105.688 109.25 105.625 108.375 105.5C107.5 105.417 106.542 105.25 105.5 105C104.667 104.792 104.021 104.646 103.562 104.562C103.104 104.479 102.667 104.438 102.25 104.438C101.833 104.438 101.521 104.5 101.312 104.625C101.104 104.75 100.875 104.979 100.625 105.312H99.6875V94.1875H100.812C101.229 96.0208 101.708 97.5625 102.25 98.8125C102.792 100.062 103.417 101.083 104.125 101.875C104.833 102.667 105.667 103.25 106.625 103.625C107.583 103.958 108.667 104.125 109.875 104.125C111.75 104.125 113.208 103.667 114.25 102.75C115.333 101.833 115.875 100.583 115.875 99C115.875 96.875 114.625 95.1042 112.125 93.6875L108 91.3125C106.458 90.4375 105.146 89.6042 104.062 88.8125C103.021 88.0208 102.167 87.2292 101.5 86.4375C100.833 85.6042 100.354 84.75 100.062 83.875C99.7708 83 99.625 82.0625 99.625 81.0625C99.625 79.7708 99.8542 78.5833 100.312 77.5C100.812 76.4167 101.479 75.4792 102.312 74.6875C103.188 73.8958 104.229 73.2917 105.438 72.875C106.646 72.4583 107.979 72.25 109.438 72.25C111.104 72.25 112.708 72.5417 114.25 73.125C115.125 73.5 115.792 73.6875 116.25 73.6875C116.417 73.6875 116.542 73.6458 116.625 73.5625C116.708 73.4792 116.917 73.2917 117.25 73L117.312 72.875H118.188L118.438 82.625H117.312Z" fill="black"/>
</svg>
